<?xml version="1.0" standalone="no"?>
<!DOCTYPE svg PUBLIC "-//W3C//DTD SVG 20010904//EN"
 "http://www.w3.org/TR/2001/REC-SVG-20010904/DTD/svg10.dtd">
<svg version="1.0" xmlns="http://www.w3.org/2000/svg"
 width="543.000000pt" height="85.000000pt" viewBox="0 0 543.000000 85.000000"
 preserveAspectRatio="xMidYMid meet">

<g transform="translate(0.000000,85.000000) scale(0.100000,-0.100000)"
fill="#ffffff" stroke="none">
<path d="M292 765 c-182 -40 -305 -146 -260 -225 13 -23 13 -31 2 -51 -17 -31
-17 -60 0 -85 12 -17 12 -22 0 -39 -18 -24 -18 -65 0 -91 12 -17 12 -22 0 -39
-20 -27 -17 -72 6 -95 19 -19 33 -20 408 -20 379 0 389 1 407 20 20 22 24 85
7 102 -7 7 -5 21 4 44 12 29 12 39 0 69 -8 19 -11 37 -7 40 18 10 21 57 7 86
-13 25 -13 33 0 58 13 26 13 34 1 63 -58 135 -339 214 -575 163z m345 -41 c72
-19 148 -60 179 -97 27 -33 32 -82 8 -91 -9 -3 -182 -6 -384 -6 -369 0 -369 0
-381 22 -25 47 58 128 166 163 116 36 292 40 412 9z m-519 -277 c3 -41 1 -47
-17 -47 -25 0 -51 26 -51 50 0 20 38 52 55 47 5 -2 11 -25 13 -50z m187 -37
c0 -69 -3 -85 -15 -85 -12 0 -16 15 -18 67 -3 72 -20 96 -59 81 -27 -10 -33
-23 -33 -80 0 -40 -4 -53 -15 -53 -12 0 -15 16 -15 80 l0 81 78 -3 77 -3 0
-85z m197 53 l38 -37 32 32 32 32 33 -32 33 -32 38 37 c27 26 47 37 68 37 54
0 84 -41 58 -79 -15 -20 -22 -21 -255 -21 l-239 0 0 50 0 50 62 0 c58 0 65 -2
100 -37z m56 26 c-2 -6 -8 -10 -13 -10 -5 0 -11 4 -13 10 -2 6 4 11 13 11 9 0
15 -5 13 -11z m132 2 c0 -18 -18 -21 -30 -6 -10 13 -9 15 9 15 11 0 21 -4 21
-9z m-450 -72 c0 -10 -7 -19 -15 -19 -15 0 -21 31 -9 43 11 10 24 -3 24 -24z
m-120 -79 c11 -46 90 -36 90 11 0 11 7 19 15 19 8 0 15 -9 15 -21 0 -34 19
-59 45 -59 30 0 55 25 55 56 0 23 3 24 69 24 61 0 70 -3 76 -20 10 -30 54 -60
90 -60 36 0 80 30 90 60 6 18 15 20 79 20 43 0 77 -5 84 -12 15 -15 15 -61 0
-76 -9 -9 -106 -12 -377 -12 -325 0 -366 2 -383 17 -23 20 -23 41 -1 65 22 25
46 19 53 -12z m508 13 c-8 -41 -108 -39 -108 2 0 12 13 15 56 15 47 0 55 -3
52 -17z m193 -123 c12 -7 19 -21 19 -40 0 -19 -7 -33 -19 -40 -13 -6 -149 -10
-373 -10 -304 0 -357 2 -376 16 -26 18 -28 46 -6 68 13 14 61 16 375 16 229 0
367 -4 380 -10z"/>
<path d="M356 721 c-8 -12 41 -54 54 -46 8 5 5 15 -11 31 -24 25 -35 29 -43
15z"/>
<path d="M535 710 c-10 -16 36 -63 49 -50 7 7 2 18 -16 36 -18 18 -28 22 -33
14z"/>
<path d="M182 647 c-25 -27 -28 -37 -9 -37 17 0 59 44 50 53 -11 11 -18 8 -41
-16z"/>
<path d="M452 647 c-25 -27 -28 -37 -9 -37 16 0 47 32 47 48 0 19 -14 14 -38
-11z"/>
<path d="M690 657 c0 -16 32 -47 48 -47 19 0 14 14 -11 38 -27 25 -37 28 -37
9z"/>
<path d="M276 611 c-8 -12 41 -54 54 -46 8 5 5 15 -11 31 -24 25 -35 29 -43
15z"/>
<path d="M597 602 c-18 -20 -22 -42 -9 -42 10 0 52 43 52 53 0 14 -27 7 -43
-11z"/>
<path d="M1754 666 c-3 -8 -4 -25 -2 -38 3 -20 9 -23 43 -23 39 0 40 1 40 35
0 33 -2 35 -38 38 -26 2 -39 -1 -43 -12z"/>
<path d="M1897 643 c-4 -3 -7 -84 -7 -180 l0 -173 40 0 40 0 0 180 0 180 -33
0 c-19 0 -37 -3 -40 -7z"/>
<path d="M2030 471 l0 -181 40 0 40 0 -2 178 -3 177 -37 3 -38 3 0 -180z"/>
<path d="M5268 630 c-9 -6 -19 -23 -23 -39 -3 -16 -13 -32 -21 -35 -19 -7 -18
-65 1 -72 12 -5 15 -24 15 -84 0 -103 3 -110 51 -110 l39 0 0 95 0 95 26 0
c23 0 25 3 22 38 -2 30 -7 38 -25 40 -19 3 -23 10 -23 43 0 34 -3 39 -22 39
-13 0 -31 -5 -40 -10z"/>
<path d="M1264 601 c-63 -29 -89 -72 -89 -151 0 -53 5 -71 24 -99 34 -47 100
-75 160 -66 75 11 81 18 81 85 l0 60 -40 0 c-39 0 -40 -1 -40 -36 0 -35 -1
-35 -32 -29 -40 8 -78 47 -78 81 0 14 7 38 15 54 18 34 70 49 105 30 12 -6 23
-10 24 -8 19 24 36 54 36 61 0 12 -65 37 -97 37 -15 0 -46 -9 -69 -19z"/>
<path d="M3334 609 c-45 -13 -100 -78 -109 -127 -9 -58 9 -115 50 -151 51 -44
98 -56 165 -39 l55 13 3 63 3 62 -41 0 c-38 0 -40 -2 -40 -29 0 -38 -8 -43
-53 -30 -42 11 -57 33 -57 84 0 64 65 104 120 75 15 -8 23 -5 39 19 12 16 21
31 21 34 0 3 -15 12 -34 21 -37 18 -74 19 -122 5z"/>
<path d="M2152 578 c3 -31 6 -33 46 -36 l42 -3 0 -125 0 -125 43 3 42 3 3 123
3 122 39 0 c39 0 40 1 40 35 l0 35 -131 0 -130 0 3 -32z"/>
<path d="M1507 563 c-4 -3 -7 -66 -7 -140 l0 -133 40 0 40 0 0 88 c0 76 3 92
20 107 17 15 23 16 51 5 29 -13 33 -12 50 9 25 31 24 38 -11 56 -40 21 -73 19
-95 -5 l-18 -20 -14 20 c-14 20 -43 27 -56 13z"/>
<path d="M1754 557 c-2 -7 -3 -69 -2 -138 l3 -124 40 0 40 0 3 129 c2 97 -1
131 -10 138 -20 12 -68 9 -74 -5z"/>
<path d="M2490 554 c-42 -26 -63 -64 -68 -118 -12 -150 169 -208 261 -84 25
33 25 108 0 150 -35 60 -136 88 -193 52z m110 -74 c41 -41 16 -120 -38 -120
-36 0 -62 27 -62 65 0 64 59 96 100 55z"/>
<path d="M2754 557 c-2 -7 -3 -89 -2 -182 l3 -170 35 0 35 0 3 52 c2 29 5 53
8 53 3 0 16 -7 29 -16 27 -18 74 -12 113 13 59 37 79 126 44 193 -34 63 -131
91 -172 50 -11 -11 -22 -20 -24 -20 -2 0 -6 9 -9 20 -6 23 -54 28 -63 7z m180
-78 c48 -38 24 -119 -35 -119 -65 0 -93 79 -43 119 15 12 32 21 39 21 7 0 24
-9 39 -21z"/>
<path d="M3615 550 c-77 -51 -87 -171 -19 -231 61 -53 148 -46 203 16 58 67
36 181 -42 218 -47 23 -105 21 -142 -3z m115 -70 c24 -24 26 -77 3 -102 -20
-22 -61 -23 -85 -1 -39 35 -10 123 42 123 11 0 29 -9 40 -20z"/>
<path d="M3884 556 c-3 -9 -4 -58 -2 -111 3 -91 4 -96 35 -127 42 -41 104 -46
133 -10 18 22 19 22 25 2 4 -14 15 -20 36 -20 l30 0 -3 138 -3 137 -35 0 -35
0 -3 -85 c-3 -88 -17 -120 -52 -120 -35 0 -49 32 -52 120 l-3 85 -33 3 c-22 2
-34 -2 -38 -12z"/>
<path d="M4207 563 c-4 -3 -7 -66 -7 -140 l0 -133 40 0 40 0 0 88 c0 76 3 92
20 107 17 15 23 16 51 5 30 -13 33 -12 51 10 l20 24 -27 23 c-32 28 -76 30
-100 3 l-18 -20 -14 20 c-14 20 -43 27 -56 13z"/>
<path d="M4457 563 c-4 -3 -7 -66 -7 -140 l0 -133 39 0 c48 0 51 7 51 111 0
76 1 79 25 85 45 11 55 -9 55 -107 l0 -89 40 0 40 0 0 88 c0 93 8 112 46 112
32 0 35 -10 35 -98 0 -42 4 -83 8 -90 5 -8 22 -12 42 -10 l34 3 3 65 c5 99 -5
149 -38 182 -39 38 -115 36 -142 -5 -3 -6 -17 -1 -33 12 -35 27 -86 28 -111 0
l-18 -20 -8 20 c-7 20 -46 29 -61 14z"/>
<path d="M4974 551 c-60 -37 -83 -136 -44 -198 33 -56 115 -84 171 -60 51 21
61 38 40 65 -16 22 -18 22 -46 8 -17 -9 -37 -16 -45 -16 -19 0 -60 28 -60 40
0 5 42 11 93 12 l92 3 3 32 c10 97 -116 168 -204 114z m114 -63 c22 -22 13
-28 -38 -28 -36 0 -50 4 -50 14 0 26 66 36 88 14z"/>
</g>
</svg>
