<?xml version="1.0" standalone="no"?>
<!DOCTYPE svg PUBLIC "-//W3C//DTD SVG 20010904//EN"
 "http://www.w3.org/TR/2001/REC-SVG-20010904/DTD/svg10.dtd">
<svg version="1.0" xmlns="http://www.w3.org/2000/svg"
 width="536.000000pt" height="169.000000pt" viewBox="0 0 536.000000 169.000000"
 preserveAspectRatio="xMidYMid meet">

<g transform="translate(0.000000,169.000000) scale(0.100000,-0.100000)"
fill="#ffffff" stroke="none">
<path d="M263 1633 c-10 -4 -13 -167 -13 -768 0 -666 2 -764 15 -775 13 -10
29 1 103 74 49 47 91 86 94 86 3 0 8 -18 12 -40 12 -75 78 -103 130 -55 25 23
26 27 26 147 l0 123 108 108 c59 59 115 107 123 107 26 0 39 -23 49 -86 7 -44
16 -65 35 -81 48 -42 124 -25 154 34 7 14 11 91 11 210 l0 188 125 125 c69 69
125 132 125 141 0 24 -110 124 -218 197 -159 109 -360 195 -547 236 -137 30
-296 44 -332 29z m242 -64 c33 -5 92 -17 132 -26 l72 -16 -15 -29 c-18 -35
-15 -73 6 -73 8 0 24 17 35 38 18 34 23 38 49 33 52 -10 218 -95 318 -163 54
-36 98 -69 98 -73 0 -4 -9 -15 -20 -25 -25 -22 -26 -55 -3 -55 9 0 29 11 43
25 l26 25 29 -30 29 -31 -46 -45 -45 -46 -64 52 c-35 28 -101 74 -147 102
l-82 51 20 34 c23 39 25 59 8 69 -11 7 -40 -21 -63 -61 -10 -17 -17 -15 -105
20 -52 21 -151 52 -220 69 l-125 31 9 43 c17 80 -29 82 -53 2 -12 -41 -22 -46
-68 -34 -21 6 -23 12 -23 71 l0 64 73 -6 c39 -4 99 -11 132 -16z m8 -194 c204
-41 476 -173 627 -303 l35 -30 -30 -32 c-30 -31 -30 -31 -35 -8 -4 14 -13 23
-25 23 -19 0 -20 -10 -25 -250 -3 -137 -9 -256 -13 -262 -12 -19 -65 -16 -75
5 -5 9 -12 37 -15 61 -7 56 -34 92 -81 110 l-37 14 -104 -103 -104 -103 -3 49
c-3 41 -6 49 -23 49 -19 0 -20 -8 -23 -196 -2 -165 -5 -199 -18 -210 -14 -11
-18 -10 -30 6 -8 10 -14 27 -14 36 0 28 -19 64 -42 78 -19 12 -27 6 -99 -65
l-79 -79 0 132 c0 127 1 131 23 137 68 17 117 111 97 185 -11 40 -61 94 -99
106 -21 6 -21 12 -21 344 l0 337 68 -8 c37 -4 102 -15 145 -23z"/>
<path d="M435 1311 c-66 -40 -92 -100 -73 -169 35 -130 209 -152 275 -36 29
50 29 98 0 148 -40 70 -137 98 -202 57z"/>
<path d="M654 938 c-25 -12 -44 -48 -44 -84 0 -37 51 -84 90 -84 40 0 90 47
90 85 0 74 -68 116 -136 83z"/>
<path d="M2130 1029 c0 -28 2 -30 33 -27 27 2 33 8 35 31 3 25 1 27 -32 27
-33 0 -36 -2 -36 -31z"/>
<path d="M2244 1027 c-2 -7 -3 -76 -2 -152 l3 -140 30 0 30 0 3 153 3 152 -31
0 c-17 0 -33 -6 -36 -13z"/>
<path d="M2362 888 l3 -153 30 0 30 0 3 153 3 152 -36 0 -36 0 3 -152z"/>
<path d="M5098 1019 c-10 -5 -18 -21 -18 -34 0 -14 -4 -25 -10 -25 -5 0 -10
-13 -10 -30 0 -16 4 -30 10 -30 5 0 10 -37 12 -82 l3 -83 29 -3 c39 -5 46 10
46 96 0 65 2 72 20 72 31 0 29 57 -2 62 -17 2 -22 10 -23 33 0 33 -25 44 -57
24z"/>
<path d="M1698 993 c-35 -22 -68 -82 -68 -124 0 -96 110 -165 204 -129 24 9
26 15 26 65 0 54 0 55 -30 55 -27 0 -30 -3 -30 -30 0 -27 -3 -30 -30 -30 -58
0 -89 68 -54 118 13 19 24 23 59 21 44 -3 75 12 75 37 0 35 -104 46 -152 17z"/>
<path d="M2470 981 c0 -26 4 -30 33 -33 l32 -3 3 -107 3 -108 34 0 34 0 3 108
3 107 33 3 c28 3 32 7 32 33 l0 29 -105 0 -105 0 0 -29z"/>
<path d="M3419 972 c-43 -44 -54 -76 -44 -129 14 -74 96 -124 179 -109 46 9
58 26 54 78 -3 40 -5 43 -35 46 -31 3 -33 1 -33 -27 0 -28 -3 -31 -29 -31 -20
0 -36 9 -50 26 -25 32 -27 62 -5 93 15 20 23 23 64 19 43 -4 49 -2 63 22 16
26 15 27 -9 39 -14 6 -46 11 -71 11 -39 0 -50 -5 -84 -38z"/>
<path d="M1914 957 c-2 -7 -3 -60 -2 -118 l3 -104 30 0 30 0 3 75 c2 41 8 80
14 87 13 16 50 17 65 2 8 -8 15 -4 27 12 14 21 14 24 -1 41 -21 24 -78 24 -93
1 -10 -17 -10 -17 -20 0 -13 20 -48 23 -56 4z"/>
<path d="M2132 853 l3 -118 30 0 30 0 0 115 0 115 -33 3 -33 3 3 -118z"/>
<path d="M2738 947 c-35 -29 -48 -58 -48 -103 0 -52 62 -114 114 -114 77 0
126 50 126 131 0 33 -6 47 -34 75 -29 29 -41 34 -82 34 -36 0 -56 -6 -76 -23z
m106 -53 c25 -24 20 -71 -9 -90 -23 -15 -27 -15 -50 0 -44 29 -26 106 25 106
10 0 26 -7 34 -16z"/>
<path d="M2972 818 l3 -153 33 -3 32 -3 0 52 c0 50 1 51 18 36 49 -44 144 7
157 83 8 44 -14 102 -49 125 -27 19 -86 19 -113 0 -19 -13 -22 -13 -27 0 -3 8
-17 15 -31 15 l-26 0 3 -152z m160 75 c24 -21 23 -58 -2 -83 -24 -24 -38 -25
-68 -4 -26 18 -29 60 -5 86 20 22 51 23 75 1z"/>
<path d="M3684 936 c-29 -29 -34 -41 -34 -80 0 -77 49 -126 125 -126 26 0 45
9 71 33 45 41 54 95 26 147 -24 43 -54 60 -110 60 -37 0 -50 -6 -78 -34z m118
-43 c45 -40 -2 -120 -56 -95 -31 14 -42 57 -21 88 18 28 51 31 77 7z"/>
<path d="M3930 880 c0 -88 1 -93 29 -121 35 -35 81 -39 110 -10 20 20 20 20
26 0 5 -14 14 -19 28 -17 21 3 22 9 25 121 l3 117 -36 0 -35 0 0 -74 c0 -80
-11 -100 -52 -94 -21 3 -23 9 -28 83 l-5 80 -32 3 -33 3 0 -91z"/>
<path d="M4202 853 l3 -118 30 0 30 0 5 79 c6 90 22 112 62 87 19 -12 23 -11
35 5 18 25 16 42 -6 54 -29 15 -62 12 -83 -6 -16 -16 -18 -16 -24 0 -3 9 -17
16 -30 16 l-25 0 3 -117z"/>
<path d="M4414 957 c-2 -7 -3 -60 -2 -118 l3 -104 33 -3 32 -3 0 75 c0 54 4
79 16 90 36 36 53 13 56 -79 l3 -80 33 -3 32 -3 0 75 c0 54 4 79 16 90 36 36
53 13 56 -79 l3 -80 33 -3 32 -3 0 94 c0 86 -2 96 -25 121 -27 30 -77 35 -111
12 -17 -12 -22 -12 -39 0 -25 19 -79 18 -96 -2 -11 -14 -13 -14 -21 0 -11 19
-47 21 -54 3z"/>
<path d="M4852 954 c-59 -41 -69 -124 -21 -178 44 -51 113 -60 163 -21 19 14
19 15 1 35 -13 14 -22 17 -36 10 -35 -19 -89 -6 -89 22 0 4 37 8 81 8 l82 0
-6 43 c-8 58 -51 97 -110 97 -23 0 -53 -7 -65 -16z m94 -48 c26 -20 14 -28
-37 -24 -41 3 -42 4 -25 21 21 21 36 22 62 3z"/>
</g>
</svg>
